<?xml version="1.0" encoding="utf-8"?>
<!-- Generator: Adobe Illustrator 22.0.1, SVG Export Plug-In . SVG Version: 6.00 Build 0)  -->
<svg version="1.1" id="Слой_1" xmlns="http://www.w3.org/2000/svg" xmlns:xlink="http://www.w3.org/1999/xlink" x="0px" y="0px"
	 viewBox="0 0 51 120" style="enable-background:new 0 0 51 120;" xml:space="preserve">
<style type="text/css">
	.st0{fill:#FEFEFE;}
	.st1{fill:#D0D0D0;}
	.st2{fill:#C0C0C0;}
</style>
<g>
	<g>
		<path class="st0" d="M52,121c-17,0-34,0-50.9,0C1,81,1,41,1,1C18,1,35,1,52,1C52,41,52,81,52,121z"/>
		<path class="st1" d="M24,48.5c0-12-0.1-24,0.1-36c0-1.9-1.6-5.3,2.3-5.4c4-0.1,2.5,3.3,2.5,5.2C29,36.2,29,60,29,83.8
			c0,6,0.1,6.2,6.1,6.2c2.7,0,5.3-0.1,8-0.2c1.1-0.1,2.4-1,2.7,0.9c0.2,1.3,0.3,2.4-1.2,3.4c-6.2,4.2-11.3,9.6-15.8,15.6
			c-1.5,2.1-3.3,2.1-4.8,0.1c-4.4-6.1-9.6-11.4-15.7-15.7c-1-0.7-1.4-1.3-1.3-2.4C7.3,90.1,8.5,90,9.7,90c3.2,0,6.3-0.1,9.5,0.1
			c3.8,0.3,4.9-1.4,4.9-5C23.9,72.8,24,60.7,24,48.5z"/>
		<path class="st2" d="M26.3,89.8c4.3,1.7,8.8,1,13.3,1.2c2.5,0.1,3,1.6,1.5,3.2c-4.1,4.4-8.4,8.5-12.6,12.7c-1.5,1.5-3,1-4.3-0.4
			c-3.9-3.9-7.8-7.8-11.6-11.6c-0.8-0.8-1.8-1.7-1.1-3c0.5-1.1,1.7-0.9,2.6-0.9C18.1,90.9,22.3,91.5,26.3,89.8z"/>
	</g>
</g>
</svg>
