<?xml version="1.0" encoding="utf-8"?>
<!-- Generator: Adobe Illustrator 22.0.1, SVG Export Plug-In . SVG Version: 6.00 Build 0)  -->
<svg version="1.1" id="Слой_1" xmlns="http://www.w3.org/2000/svg" xmlns:xlink="http://www.w3.org/1999/xlink" x="0px" y="0px"
	 viewBox="0 0 49 237" style="enable-background:new 0 0 49 237;" xml:space="preserve">
<style type="text/css">
	.st0{fill: transparent;}
	.st1{fill:#FBB693;}
</style>
<g>
	<g>
		<path class="st0" d="M50,1c0,79,0,158,0,237c-16.3,0-32.7,0-49,0C1,160.3,1,82.7,0.9,5c0-3.4,0.7-4.2,4.1-4.1C20,1.1,35,1,50,1z"
			/>
		<path class="st1" d="M13.2,226.7c28.7-31.8,44.9-146.8-0.4-215.2c2.6,0.6,3.3,2.6,4.2,4.1c10.7,16.8,16.9,35.2,21,54.6
			c4.4,20.8,5.7,41.8,4.8,63c-1.2,26.7-5.7,52.8-17.3,77.3c-2.7,5.8-6.3,11.3-9.6,17.1c3.6,1.3,6.5-1.8,10.8-0.5
			c-4.7,3.1-9.6,3.2-13.9,4.7c-1,0.3-1.5-1-1.7-2c-0.7-3.5-1.3-7.1-2.1-11.5C12,220.8,11,224.5,13.2,226.7z"/>
	</g>
</g>
</svg>
