<svg xmlns="http://www.w3.org/2000/svg" xmlns:xlink="http://www.w3.org/1999/xlink" width="28" height="32"
     viewBox="0 0 28 32">
    <defs>
        <path id="9rmra"
              d="M1494.45 57.48c-.55.98-1.65 1.52-3.08 1.52h-20.11a.9.9 0 0 1-.32-.06 4.55 4.55 0 0 1-3.94-4.48V36.27c0-.47.38-.85.84-.85h7.51c.46 0 .84.38.84.85v6.67l.62-1.12V33.7a3.46 3.46 0 0 1-2.23-3.25c0-1.9 1.52-3.46 3.4-3.46h8.17c1.87 0 3.4 1.55 3.4 3.46 0 1.48-.93 2.76-2.24 3.25v8.1L1494.2 54c.71 1.26.8 2.5.25 3.48zm-22.86-.2a2.88 2.88 0 0 0 2.92-2.82V37.12h-5.84v4.8h2.47c.47 0 .84.38.84.85s-.37.86-.84.86h-2.47v2.78h2.47c.47 0 .84.38.84.85s-.37.86-.84.86h-2.47v2.77h2.47c.47 0 .84.39.84.86s-.37.86-.84.86h-2.47v1.85c0 1.56 1.31 2.83 2.92 2.83zm21.15-2.42l-7-12.4a.83.83 0 0 1-.11-.42v-9c0-.43.31-.8.73-.85.86-.11 1.5-.85 1.5-1.73 0-.96-.77-1.75-1.71-1.75h-8.18c-.95 0-1.72.79-1.72 1.75 0 .88.65 1.62 1.5 1.73.42.06.74.42.74.85v9c0 .15-.04.3-.11.42l-2 3.61a.8.8 0 0 1-.2.23v8.16c0 1.08-.39 2.05-1.02 2.83h16.2c.8 0 1.4-.25 1.63-.67.24-.42.15-1.06-.25-1.76z"/>
        <path id="9rmrb"
              d="M1488.1 51.29c0 1.65-1.3 2.99-2.93 2.99a2.96 2.96 0 0 1-2.93-3c0-1.64 1.32-2.98 2.93-2.98a2.96 2.96 0 0 1 2.94 2.99zm-6.53-3.25c0 .8-.64 1.46-1.44 1.46-.8 0-1.44-.66-1.44-1.46 0-.81.65-1.47 1.44-1.47.8 0 1.44.66 1.44 1.47zm1.07-3.31a.9.9 0 0 1-.9-.92c0-.51.4-.92.9-.92s.9.41.9.92-.4.92-.9.92zm-2.6 8.63a.9.9 0 0 1-.9.92.9.9 0 0 1-.9-.92c0-.5.4-.92.9-.92s.9.41.9.92zm1.59-12.25a1.2 1.2 0 0 1-1.19-1.21c0-.67.53-1.21 1.19-1.21.65 0 1.18.54 1.18 1.2 0 .67-.53 1.22-1.18 1.22z"/>
    </defs>
    <g>
        <g transform="translate(-1467 -27)">
            <use fill="#38c3bd" xlink:href="#9rmra"/>
        </g>
        <g transform="translate(-1467 -27)">
            <use fill="#ffb400" xlink:href="#9rmrb"/>
        </g>
    </g>
</svg>