<svg xmlns="http://www.w3.org/2000/svg" xmlns:xlink="http://www.w3.org/1999/xlink" width="34" height="35" viewBox="0 0 34 35"><defs><path id="kwila" d="M753 1925v16h-21v-16zm-10 5h4v-4h-4zm4 1h-4v4h4zm-9 4h4v-4h-4zm0-5h4v-4h-4zm-5 0h4v-4h-4zm0 5h4v-4h-4zm4 1h-4v4h4zm5 0h-4v4h4zm5 0h-4v4h4zm5 0h-4v4h4zm0-5h-4v4h4zm-4-5v4h4v-4z"/><path id="kwilb" d="M760 1914v32.4a.6.6 0 0 1-.6.6h-32.8a.6.6 0 0 1-.6-.6V1914h5v-2h5v2h14v-2h5v2zm-9 2h3v-3h-3zm-19 0h3v-3h-3zm-5 4h32v-5h-4v2h-5v-2h-14v2h-5v-2h-4zm32 26v-25h-32v25z"/></defs><g><g transform="translate(-726 -1912)"><use fill="#ffb400" xlink:href="#kwila"/></g><g transform="translate(-726 -1912)"><use fill="#42cac4" xlink:href="#kwilb"/></g></g></svg>