<svg id="SVGDoc" width="152" height="93" xmlns="http://www.w3.org/2000/svg" version="1.1" xmlns:xlink="http://www.w3.org/1999/xlink" xmlns:avocode="https://avocode.com/" viewBox="0 0 152 93"><defs><path d="M1323.00003,3650.00012c4.41833,0 8.00003,3.58173 8.00003,8.00008c0,4.41782 -3.5817,7.99955 -8.00003,7.99955c-4.41833,0 -8.00003,-3.58173 -8.00003,-7.99955c0,-4.41835 3.5817,-8.00008 8.00003,-8.00008z" id="Path-0"/><path d="M1323.00003,3654.80038c1.76727,0 3.19992,1.43217 3.19992,3.19982c0,1.76713 -1.43265,3.19982 -3.19992,3.19982c-1.76743,0 -3.20007,-1.43269 -3.20007,-3.19982c0,-1.76766 1.43265,-3.19982 3.20007,-3.19982z" id="Path-1"/><path d="M1433,3742v-1h34v1z" id="Path-2"/><path d="M1323.69888,3659.39914l0.60226,-0.79864l110,83.00019l-0.60226,0.79811l-110,-82.99966" id="Path-3"/></defs><desc>Generated with Avocode.</desc><g transform="matrix(1,0,0,1,-1315,-3650)"><g opacity="0.3"><title>Ellipse 3</title><use xlink:href="#Path-0" fill="#ffb400" fill-opacity="1"/></g><g><title>Ellipse 3 copy</title><use xlink:href="#Path-1" fill="#ffb400" fill-opacity="1"/></g><g><title>Rectangle 9</title><use xlink:href="#Path-2" fill="#ffb400" fill-opacity="1"/></g><g><title>Shape 3</title><use xlink:href="#Path-3" fill="#ffb400" fill-opacity="1"/></g></g></svg>