<svg id="SVGDoc" width="192" height="257" xmlns="http://www.w3.org/2000/svg" version="1.1" xmlns:xlink="http://www.w3.org/1999/xlink" xmlns:avocode="https://avocode.com/" viewBox="0 0 192 257"><defs><path d="M1283.00003,3769.99977c4.41833,0 8.00003,3.58173 8.00003,8.00008c0,4.41835 -3.5817,8.00008 -8.00003,8.00008c-4.41833,0 -8.00003,-3.58173 -8.00003,-8.00008c0,-4.41835 3.5817,-8.00008 8.00003,-8.00008z" id="Path-0"/><path d="M1283.00003,3774.80003c1.76727,0 3.19992,1.43269 3.19992,3.19982c0,1.76766 -1.43265,3.20035 -3.19992,3.20035c-1.76743,0 -3.20007,-1.43269 -3.20007,-3.20035c0,-1.76713 1.43265,-3.19982 3.20007,-3.19982zM1433,3531l0,-0.03016l-144.57166,240.28855l-0.85663,-0.51642l145,-241.00049l0.42883,0.25853l33.99945,0v1z" id="Path-1"/></defs><desc>Generated with Avocode.</desc><g transform="matrix(1,0,0,1,-1275,-3529)"><g opacity="0.3"><title>Ellipse 3</title><use xlink:href="#Path-0" fill="#ffb400" fill-opacity="1"/></g><g><title>Shape 2</title><use xlink:href="#Path-1" fill="#ffb400" fill-opacity="1"/></g></g></svg>