<svg id="SVGDoc" width="195" height="64" xmlns="http://www.w3.org/2000/svg" version="1.1" xmlns:xlink="http://www.w3.org/1999/xlink" xmlns:avocode="https://avocode.com/" viewBox="0 0 195 64"><defs><path d="M1281.99997,3677.99988c4.41833,0 8.00003,3.58173 8.00003,8.00008c0,4.41782 -3.5817,7.99955 -8.00003,7.99955c-4.41833,0 -8.00003,-3.58173 -8.00003,-7.99955c0,-4.41835 3.5817,-8.00008 8.00003,-8.00008z" id="Path-0"/><path d="M1282.00012,3682.80014c1.76727,0 3.19992,1.43217 3.19992,3.19982c0,1.76713 -1.43265,3.19982 -3.19992,3.19982c-1.24771,0 -2.32858,-0.714 -2.85636,-1.75562l-150.61303,53.86218l-0.26547,-0.30634h-33.26526v-1h34l0,0.14766l149.84868,-53.58889c-0.03196,-0.18146 -0.04863,-0.36819 -0.04863,-0.55881c0,-1.76766 1.43265,-3.19982 3.20007,-3.19982z" id="Path-1"/></defs><desc>Generated with Avocode.</desc><g transform="matrix(1,0,0,1,-1095,-3678)"><g opacity="0.3"><title>Ellipse 3</title><use xlink:href="#Path-0" fill="#ffb400" fill-opacity="1"/></g><g><title>Shape 2</title><use xlink:href="#Path-1" fill="#ffb400" fill-opacity="1"/></g></g></svg>