<svg id="SVGDoc" width="180" height="265" xmlns="http://www.w3.org/2000/svg" version="1.1" xmlns:xlink="http://www.w3.org/1999/xlink" xmlns:avocode="https://avocode.com/" viewBox="0 0 180 265"><defs><path d="M1266.99997,3778.99999c4.41833,0 8.00003,3.58173 8.00003,8.00008c0,4.41782 -3.5817,7.99955 -8.00003,7.99955c-4.41833,0 -8.00003,-3.58173 -8.00003,-7.99955c0,-4.41835 3.5817,-8.00008 8.00003,-8.00008z" id="Path-0"/><path d="M1267.00012,3783.80025c1.76727,0 3.19992,1.43269 3.19992,3.19982c0,1.76713 -1.43265,3.19982 -3.19992,3.19982c-1.76743,0 -3.20007,-1.43269 -3.20007,-3.19982c0,-1.76713 1.43265,-3.19982 3.20007,-3.19982zM1095,3531v-1h33.85734l0.00008,-0.00005l0.00003,0.00005h0.14255l0,0.26316l134.99994,249.22002l-0.85739,0.51695l-134.88111,-249.00013z" id="Path-1"/></defs><desc>Generated with Avocode.</desc><g transform="matrix(1,0,0,1,-1095,-3530)"><g opacity="0.3"><title>Ellipse 3</title><use xlink:href="#Path-0" fill="#ffb400" fill-opacity="1"/></g><g><title>Shape 2</title><use xlink:href="#Path-1" fill="#ffb400" fill-opacity="1"/></g></g></svg>