<svg xmlns="http://www.w3.org/2000/svg" xmlns:xlink="http://www.w3.org/1999/xlink" width="28" height="32" viewBox="0 0 28 32"><defs><path id="b4f8a" d="M1024.8 52.14a16.06 16.06 0 0 1-27.6 0c-.2-.33-.2-.75 0-1.08 2-3.41 5.2-5.94 9.02-7.12.37-.12.78-.02 1.07.26a26.66 26.66 0 0 0 3.53 2.73 1.08 1.08 0 0 1 .4 0c.85-.54 2.29-1.54 3.5-2.73.28-.28.69-.38 1.06-.26a15.88 15.88 0 0 1 9.02 7.12c.2.33.2.75 0 1.08zm-2.18-.54a13.74 13.74 0 0 0-6.89-5.43 26.37 26.37 0 0 1-3.67 2.76v8.89c4.3-.33 8.23-2.64 10.56-6.22zm-16.35-5.43a13.73 13.73 0 0 0-6.9 5.43 13.92 13.92 0 0 0 10.56 6.22V48.9c-.8-.53-2.41-1.63-3.66-2.74zm11.78-11.07v1.92c0 3.91-3.17 7.1-7.05 7.1a7.08 7.08 0 0 1-7.05-7.1V35.1c0-.53.04-1.04.14-1.52-.1-.15-.14-.34-.14-.53 0-.57.43-1.03.98-1.07a1.07 1.07 0 0 1 .9 0h8.98a4.92 4.92 0 0 0-7.2-.5c-.44.4-1.11.38-1.52-.05-.4-.43-.38-1.1.05-1.51a7.05 7.05 0 0 1 11.9 5.18zm-11.97 0v1.92c0 2.73 2.2 4.96 4.92 4.96a4.94 4.94 0 0 0 4.91-4.96V35.1a5 5 0 0 0-.1-.99h-9.65c-.05.31-.08.64-.08.99z"/><path id="b4f8b" d="M1019.04 51.96c0 .59-.47 1.07-1.06 1.07h-.93v.92a1.07 1.07 0 0 1-2.14 0v-.92h-.92a1.07 1.07 0 1 1 0-2.14h.92v-.92a1.07 1.07 0 0 1 2.14 0v.92h.93c.59 0 1.06.48 1.06 1.07zm-11.07-20.9a3.01 3.01 0 1 1-6.02-.02 3.01 3.01 0 0 1 6.02.01zm-2.14 0a.87.87 0 1 0-1.74 0 .87.87 0 0 0 1.74 0z"/></defs><g><g transform="translate(-997 -28)"><use fill="#38c3bd" xlink:href="#b4f8a"/></g><g transform="translate(-997 -28)"><use fill="#ffb400" xlink:href="#b4f8b"/></g></g></svg>