<svg id="SVGDoc" width="19" height="23" xmlns="http://www.w3.org/2000/svg" version="1.1" xmlns:xlink="http://www.w3.org/1999/xlink" xmlns:avocode="https://avocode.com/" viewBox="0 0 19 23"><defs><path d="M742.16553,5875.94032c-1.77933,-2.06939 -1.48361,-5.61367 -1.45126,-5.94968c0.11566,-2.5568 1.29868,-3.77111 2.26929,-4.34081c0.96603,-0.5639 1.97357,-0.65094 2.48642,-0.65094c0.00458,0 0.07416,0 0.07874,0c0.93353,0.02163 1.77017,0.24529 2.48642,0.67256c0.96146,0.56917 2.12601,1.78084 2.24152,4.31918c0.03235,0.33602 0.32822,3.8803 -1.45126,5.94968c-0.80872,0.93631 -1.90399,1.42531 -3.25821,1.45432c-0.01389,0 -0.03235,0 -0.04623,0c-0.00931,0 -0.01846,0 -0.02762,0c-0.02792,0 -0.05096,0 -0.07416,0c-1.35406,-0.02901 -2.44949,-0.51801 -3.25363,-1.45432zM743.09464,5875.08472c0.5777,0.67626 1.35864,1.01386 2.37534,1.0223c0.00931,0 0.01404,0 0.02335,0c0.00916,0 0.01373,0 0.02289,0c1.02158,-0.00844 1.79794,-0.34604 2.38037,-1.0223c1.46957,-1.70172 1.14609,-4.94269 1.14151,-4.97592c-0.00458,-0.01002 -0.00458,-0.02479 -0.00458,-0.03798c-0.14328,-3.23094 -2.26471,-3.75264 -3.51257,-3.77955c-0.01389,0 -0.04623,0 -0.05554,0c-1.00754,0 -3.35999,0.36714 -3.51242,3.77955c0,0.01002 -0.00458,0.02479 -0.00458,0.03798c-0.00473,0.0269 -0.31906,3.28158 1.14624,4.97592zM754.76898,5885.42216c-0.04623,0.12502 -0.13397,0.22946 -0.24033,0.3012c-0.1387,0.09073 -3.46161,2.27669 -9.02161,2.27669c-5.56,0 -8.8829,-2.18174 -9.02161,-2.27669c-0.11093,-0.07174 -0.19409,-0.17619 -0.24033,-0.3012c-0.2449,-0.6388 -0.24033,-1.9085 -0.23575,-2.1559c0,-0.00633 0,-0.01161 0,-0.01477c0.00458,-0.03798 0.00458,-0.07649 0.00458,-0.11816c0.02777,-0.94106 0.08789,-3.14391 2.09381,-3.85498c0.01373,-0.00475 0.02762,-0.0095 0.04608,-0.01319c2.09366,-0.55124 3.8176,-1.78612 3.83606,-1.80036c0.28198,-0.20573 0.67017,-0.13557 0.86899,0.15878c0.19867,0.28802 0.12939,0.68839 -0.15259,0.88989c-0.07858,0.05381 -1.91803,1.37942 -4.21967,1.99026c-1.07697,0.39615 -1.19705,1.58145 -1.2294,2.66388c0,0.04589 -0.00458,0.08387 -0.00458,0.12238c-0.00931,0.42622 0.02304,1.08929 0.09705,1.46962c0.75333,0.44046 3.70651,1.95703 8.15277,1.95703c4.46457,0 7.39929,-1.51076 8.14819,-1.95175c0.07385,-0.37875 0.10162,-1.04181 0.09705,-1.46909c-0.00473,-0.04115 -0.00473,-0.07965 -0.00473,-0.1208c-0.03235,-1.08454 -0.15244,-2.26984 -1.2294,-2.66968c-2.30164,-0.61085 -4.14108,-1.92802 -4.21967,-1.98657c-0.28198,-0.20362 -0.3511,-0.60241 -0.15244,-0.89306c0.19867,-0.29118 0.58685,-0.36081 0.86884,-0.15614c0.01846,0.01477 1.75171,1.25018 3.83606,1.79931c0.01389,0.00475 0.03235,0.0095 0.04623,0.01319c2.00592,0.70738 2.06589,2.91022 2.09366,3.8534c0,0.0422 0.00458,0.08071 0.00458,0.11922c0,0.00528 0,0.01161 0,0.01688c0.00473,0.24634 0.00931,1.51551 -0.22186,2.15062z" id="Path-0"/></defs><desc>Generated with Avocode.</desc><g transform="matrix(1,0,0,1,-736,-5865)"><g><title>Shape 1</title><use xlink:href="#Path-0" fill="#42cac4" fill-opacity="1"/></g></g></svg>