<svg xmlns="http://www.w3.org/2000/svg" xmlns:xlink="http://www.w3.org/1999/xlink" width="32" height="32" viewBox="0 0 32 32"><defs><path id="ogqaa" d="M725.32 31.1c0 2.28-1.81 4.12-4.04 4.12a4.08 4.08 0 0 1-4.04-4.11c0-2.27 1.81-4.11 4.04-4.11a4.08 4.08 0 0 1 4.04 4.1zm-1.6 0c0-1.36-1.1-2.47-2.44-2.47a2.46 2.46 0 0 0-2.44 2.48c0 1.37 1.1 2.48 2.44 2.48a2.46 2.46 0 0 0 2.44-2.48zm4.28 9.02v5.2a4.1 4.1 0 0 1-2.1 3.59v6.85a3.22 3.22 0 0 1-3.2 3.24h-3.63a.81.81 0 0 1-.8-.82c0-.45.36-.82.8-.82h3.64a1.6 1.6 0 0 0 1.58-1.61V48.4c0-.34.21-.65.53-.77a2.45 2.45 0 0 0 1.58-2.3v-5.2a2.43 2.43 0 0 0-2.4-2.45h-3.44a.81.81 0 0 1-.8-.81c0-.46.35-.82.8-.82h3.43c2.21 0 4.01 1.82 4.01 4.07zm-25.28-4.9a4.08 4.08 0 0 1-4.04-4.11c0-2.27 1.81-4.11 4.04-4.11a4.08 4.08 0 0 1 4.04 4.1c0 2.28-1.82 4.12-4.04 4.12zm0-1.63a2.46 2.46 0 0 0 2.44-2.48c0-1.37-1.1-2.48-2.44-2.48a2.46 2.46 0 0 0-2.44 2.48c0 1.37 1.1 2.48 2.44 2.48zm-4.62 22.14V48.9a4.1 4.1 0 0 1-2.1-3.58v-5.2c0-2.26 1.8-4.08 4-4.08h3.44c.44 0 .8.36.8.81 0 .46-.36.82-.8.82H700c-1.32 0-2.4 1.1-2.4 2.45v5.2c0 1.03.63 1.94 1.57 2.3.32.12.53.42.53.76v7.35c0 .89.7 1.61 1.58 1.61h3.64c.44 0 .8.37.8.82 0 .45-.36.82-.8.82h-3.64a3.22 3.22 0 0 1-3.19-3.25z"/><path id="ogqab" d="M707.96 31.1c0-2.26 1.81-4.1 4.04-4.1a4.08 4.08 0 0 1 4.04 4.1c0 2.28-1.81 4.12-4.04 4.12a4.08 4.08 0 0 1-4.04-4.11zm1.6 0c0 1.38 1.1 2.49 2.44 2.49a2.46 2.46 0 0 0 2.44-2.48c0-1.37-1.1-2.48-2.44-2.48a2.46 2.46 0 0 0-2.44 2.48zM707 55.75V48.9a4.1 4.1 0 0 1-2.1-3.59v-5.2c0-2.25 1.79-4.08 4-4.08h6.21c2.21 0 4.01 1.83 4.01 4.08v5.2a4.1 4.1 0 0 1-2.1 3.59v6.83a3.22 3.22 0 0 1-3.2 3.24h-3.63a3.23 3.23 0 0 1-3.2-3.24zm1.1-8.12c.3.12.52.42.52.76v7.36c0 .89.71 1.61 1.59 1.61h3.63a1.6 1.6 0 0 0 1.59-1.61v-7.36c0-.34.2-.64.52-.76a2.46 2.46 0 0 0 1.58-2.3v-5.2a2.43 2.43 0 0 0-2.4-2.45h-6.22c-1.33 0-2.41 1.1-2.41 2.45v5.2c0 1.02.63 1.94 1.6 2.3z"/></defs><g><g transform="translate(-696 -27)"><use fill="#38c3bd" xlink:href="#ogqaa"/></g><g transform="translate(-696 -27)"><use fill="#ffb400" xlink:href="#ogqab"/></g></g></svg>