<svg id="SVGDoc" width="21" height="24" xmlns="http://www.w3.org/2000/svg" version="1.1" xmlns:xlink="http://www.w3.org/1999/xlink" xmlns:avocode="https://avocode.com/" viewBox="0 0 21 24"><defs><path d="M1042.36389,5883.15548c0.44403,0.56232 0.63599,1.18635 0.55984,1.80616c-0.07553,0.61348 -0.4097,1.17738 -0.96832,1.63209c-0.24292,0.19992 -0.4895,0.38508 -0.72998,0.56495c-0.35263,0.26322 -0.68802,0.51273 -0.98694,0.79178c-0.00626,0.01108 -0.01694,0.01688 -0.02304,0.02479c-0.86212,0.73112 -1.884,1.02335 -3.04016,0.8804c-0.1001,-0.0095 -0.20966,-0.03007 -0.31403,-0.04537c-1.70303,-0.31914 -3.16025,-1.15101 -4.24438,-1.8357c-2.83401,-1.81988 -5.21774,-4.19838 -7.08832,-7.0759c-1.53992,-2.38378 -2.50229,-4.54864 -3.04443,-6.82481c-0.22095,-0.93051 -0.48431,-2.33947 -0.18463,-3.78113c0.19119,-0.89042 0.65247,-1.62418 1.37161,-2.18069l1.91254,-1.50602c0.00549,-0.00317 0.00549,-0.00317 0.01114,-0.00844c0.55954,-0.41462 1.18134,-0.59871 1.79199,-0.52434c0.6105,0.07385 1.15967,0.40037 1.58615,0.93842c0.28839,0.34024 0.56442,0.69577 0.82672,1.04445c0.13046,0.17724 0.27084,0.35501 0.40695,0.52803l1.19843,1.52975c0.92194,1.17052 0.75485,2.52884 -0.42511,3.44827c-0.15732,0.12133 -0.31525,0.24951 -0.47256,0.37083c-0.41656,0.33022 -0.84488,0.67151 -1.30127,0.99434c0.22232,0.70949 0.56107,1.42689 1.08948,2.28883c1.09634,1.73812 2.29218,3.12544 3.65799,4.239c0.13397,0.11236 0.29373,0.21628 0.46295,0.33022c0.11703,0.07807 0.23911,0.15878 0.36072,0.24582l1.77505,-1.37572c0.56747,-0.44627 1.19064,-0.63511 1.80618,-0.56284c0.62057,0.07807 1.17294,0.42095 1.59637,0.98168zM1041.28677,5883.98155l-2.41898,-3.08641c-0.00443,-0.00422 -0.00443,-0.00422 -0.00885,-0.00686c-0.13428,-0.19043 -0.36545,-0.41514 -0.67581,-0.45734c-0.31525,-0.03271 -0.61066,0.13662 -0.8017,0.28538l-1.92184,1.49599c-0.09552,0.07491 -0.38773,0.30542 -0.80307,0.25109c-0.16525,-0.0211 -0.32043,-0.0786 -0.48019,-0.18621c-0.01877,-0.01002 -0.03693,-0.03112 -0.05569,-0.04115c-0.13412,-0.10867 -0.29373,-0.21206 -0.46295,-0.32494c-0.18784,-0.12133 -0.38513,-0.25426 -0.57434,-0.40934c-1.48178,-1.20692 -2.77527,-2.7045 -3.9476,-4.57554l-0.00443,-0.00475c-0.64209,-1.05289 -1.04294,-1.91905 -1.29272,-2.8216c-0.00305,-0.01424 -0.00626,-0.02954 -0.00946,-0.04642c-0.05508,-0.29382 -0.08347,-0.72373 0.39978,-1.10142c0.00626,-0.00897 0.01694,-0.01161 0.02808,-0.01899c0.4834,-0.33707 0.93292,-0.68892 1.40625,-1.06397c0.1622,-0.12133 0.32013,-0.2474 0.48309,-0.37927c0.5957,-0.4584 0.65582,-0.95108 0.19058,-1.54241l-1.19858,-1.52553c-0.13977,-0.18621 -0.2803,-0.3645 -0.4158,-0.5428c-0.26657,-0.35132 -0.52063,-0.68259 -0.79086,-1.00172c-0.00427,-0.00739 -0.00885,-0.01161 -0.01312,-0.01794c-0.14053,-0.17777 -0.37247,-0.40037 -0.68771,-0.43888c-0.25528,-0.02954 -0.53085,0.05961 -0.80444,0.26164l-1.91605,1.48861c-0.46631,0.36239 -0.75119,0.81868 -0.87311,1.39841c-0.18753,0.90414 -0.13657,1.8874 0.17578,3.1898c0.50491,2.12741 1.41266,4.15724 2.86652,6.41863c1.76407,2.70608 4.0123,4.95218 6.67664,6.66234c0.97504,0.62034 2.28516,1.36623 3.75992,1.6458c0.07431,0.01319 0.15442,0.02268 0.22949,0.03376c0.78079,0.09179 1.40762,-0.08546 1.97952,-0.56601c0.35507,-0.32547 0.7254,-0.60768 1.08871,-0.87671c0.24109,-0.18252 0.46463,-0.35026 0.68558,-0.53225c-0.00565,0.00264 -0.00488,0 0,0c0.57556,-0.46737 0.64011,-0.98906 0.18738,-1.56299z" id="Path-0"/></defs><desc>Generated with Avocode.</desc><g transform="matrix(1,0,0,1,-1022,-5865)"><g><title>Shape 1</title><use xlink:href="#Path-0" fill="#42cac4" fill-opacity="1"/></g></g></svg>