<svg xmlns="http://www.w3.org/2000/svg" xmlns:xlink="http://www.w3.org/1999/xlink" width="28" height="32"
     viewBox="0 0 28 32">
    <defs>
        <path id="mvd2a"
              d="M1718.84 51.2c.59.76.84 1.59.74 2.42-.1.81-.54 1.57-1.27 2.17-.33.27-.65.52-.97.75-.46.36-.9.69-1.3 1.06 0 .02-.02.02-.03.03a4.96 4.96 0 0 1-4 1.18l-.42-.06a16.15 16.15 0 0 1-5.6-2.45 31.38 31.38 0 0 1-9.34-9.43 28.92 28.92 0 0 1-4.01-9.1c-.3-1.24-.64-3.12-.24-5.04a4.89 4.89 0 0 1 1.8-2.91l2.52-2.01.02-.01c.74-.56 1.56-.8 2.36-.7.8.1 1.53.53 2.1 1.25.37.45.74.93 1.08 1.4l.54.7 1.58 2.04c1.21 1.56 1 3.37-.56 4.6-.21.15-.42.33-.63.49-.54.44-1.1.9-1.71 1.32.3.95.74 1.9 1.44 3.05a22.84 22.84 0 0 0 4.82 5.66c.17.15.38.29.6.44.16.1.32.2.48.33l2.34-1.84c.75-.6 1.57-.85 2.38-.75.82.1 1.55.56 2.1 1.31zm-1.42 1.1l-3.18-4.1-.02-.02a1.37 1.37 0 0 0-.89-.6c-.41-.05-.8.18-1.05.38l-2.54 1.99c-.12.1-.5.4-1.06.34-.21-.03-.42-.11-.63-.25l-.07-.06c-.18-.14-.39-.28-.61-.43-.25-.16-.51-.34-.76-.55a24.38 24.38 0 0 1-5.2-6.1 14.65 14.65 0 0 1-1.71-3.77l-.02-.06c-.07-.39-.1-.96.53-1.47l.04-.02c.64-.45 1.23-.92 1.85-1.42l.64-.5c.78-.62.86-1.27.25-2.06l-1.58-2.04-.55-.72c-.35-.47-.68-.91-1.04-1.34l-.02-.02c-.18-.24-.49-.53-.9-.59-.34-.03-.7.09-1.06.35l-2.53 1.99c-.62.48-1 1.1-1.15 1.86a9.64 9.64 0 0 0 .23 4.26 27.3 27.3 0 0 0 3.78 8.55 29.65 29.65 0 0 0 8.8 8.89c1.29.82 3.01 1.82 4.96 2.2l.3.03a3.18 3.18 0 0 0 2.6-.75c.48-.43.96-.81 1.44-1.17l.9-.7c.77-.63.85-1.33.25-2.1z"/>
        <path id="mvd2b"
              d="M1707.82 34.43l1.25-1.11s3.43-.25 5.6 2.32c2.18 2.56 1.44 6.25 1.44 6.25l-1.25 1.11s.75-3.67-1.43-6.24c-2.18-2.57-5.61-2.33-5.61-2.33z"/>
        <path id="mvd2c"
              d="M1713.63 31.88l1.25-1.12s1.77-1.1 3.94 1.48c2.18 2.56.61 4.55.61 4.55l-1.25 1.11s1.57-1.97-.6-4.54c-2.18-2.57-3.95-1.48-3.95-1.48z"/>
    </defs>
    <g>
        <g transform="translate(-1692 -27)">
            <use fill="#33c2bc" xlink:href="#mvd2a"/>
        </g>
        <g transform="translate(-1692 -27)">
            <use fill="#ffb400" xlink:href="#mvd2b"/>
        </g>
        <g transform="translate(-1692 -27)">
            <use fill="#ffb400" xlink:href="#mvd2c"/>
        </g>
    </g>
</svg>