<svg id="SVGDoc" width="24" height="27" xmlns="http://www.w3.org/2000/svg" version="1.1" xmlns:xlink="http://www.w3.org/1999/xlink" xmlns:avocode="https://avocode.com/" viewBox="0 0 24 27"><defs><path d="M1811.05408,5876.37551c0.36469,-0.36239 0.36469,-0.95319 0,-1.31612c-0.36469,-0.36345 -0.95734,-0.36345 -1.32187,0l-4.94598,4.92739c-0.8432,0.83978 -1.29898,1.92907 -1.29898,3.11067c0,1.18107 0.45578,2.26931 1.29898,3.1112c1.73218,1.72493 4.53568,1.72493 6.24512,0l11.16806,-11.12764c1.16241,-1.15839 1.80054,-2.70292 1.80054,-4.33764c0,-1.63473 -0.63812,-3.17767 -1.80054,-4.33711c-2.41592,-2.40752 -6.31348,-2.40752 -8.72925,0l-11.14548,11.10443c-1.50421,1.49916 -2.32468,3.47465 -2.32468,5.58676c0,2.11106 0.82047,4.10923 2.32468,5.58518c1.50436,1.49916 3.48724,2.31731 5.60699,2.31731c2.1196,0 4.12537,-0.81815 5.60684,-2.31731l4.94568,-4.92686c0.36484,-0.36292 0.36484,-0.95425 0,-1.3177c-0.36453,-0.36239 -0.95703,-0.36239 -1.32187,0l-4.94583,4.92686c-1.13953,1.13676 -2.66663,1.77399 -4.28482,1.77399c-1.61835,0 -3.14545,-0.63722 -4.28497,-1.77399c-1.13968,-1.13307 -1.7778,-2.65491 -1.7778,-4.26748c0,-1.61363 0.63812,-3.13388 1.7778,-4.26854l11.14532,-11.10495c0.82047,-0.81815 1.89163,-1.2486 3.03131,-1.2486c1.13953,0 2.23373,0.4526 3.03146,1.2486c0.82031,0.81815 1.25351,1.88476 1.25351,3.01942c0,1.13518 -0.45593,2.22711 -1.25351,3.02153l-11.16821,11.12553c-0.98007,0.97693 -2.59827,0.97693 -3.60107,0c-0.47867,-0.47633 -0.75226,-1.11092 -0.75226,-1.79298c0,-0.68153 0.27359,-1.31717 0.75226,-1.79509z" id="Path-0"/></defs><desc>Generated with Avocode.</desc><g transform="matrix(1,0,0,1,-1800,-5864)"><g><title>Forma 1</title><use xlink:href="#Path-0" fill="#42cac4" fill-opacity="1"/></g></g></svg>